<svg version="1.1" xmlns="http://www.w3.org/2000/svg" height="520" width="800"><g transform="translate(0,10)"><g><path style="stroke-width: 298.312; fill: none; stroke: rgb(0, 0, 0); stroke-opacity: 0.4;" d="M5,154.15601023017902C400,154.15601023017902 400,149.15601023017902 795,149.15601023017902" class="link"></path><path style="stroke-width: 117.852; fill: none; stroke: rgb(0, 0, 0); stroke-opacity: 0.4;" d="M5,362.23785166240407C400,362.23785166240407 400,374.60358056265983 795,374.60358056265983" class="link"></path><path style="stroke-width: 25.7801; fill: none; stroke: rgb(0, 0, 0); stroke-opacity: 0.4;" d="M5,462.4680306905371C400,462.4680306905371 400,446.4194373401534 795,446.4194373401534" class="link"></path><path style="stroke-width: 19.6419; fill: none; stroke: rgb(0, 0, 0); stroke-opacity: 0.4;" d="M5,485.17902813299236C400,485.17902813299236 400,490.1790281329923 795,490.1790281329923" class="link"></path><path style="stroke-width: 11.0486; fill: none; stroke: rgb(0, 0, 0); stroke-opacity: 0.4;" d="M5,426.68797953964196C400,426.68797953964196 400,474.8337595907928 795,474.8337595907928" class="link"></path><path style="stroke-width: 7.36573; fill: none; stroke: rgb(0, 0, 0); stroke-opacity: 0.4;" d="M5,445.8951406649616C400,445.8951406649616 400,301.9948849104859 795,301.9948849104859" class="link"></path></g><g><g transform="translate(795,315.6777493606138)" class="node"><rect style="fill: rgb(102, 102, 102);" width="5" height="143.63171355498721"><title>Maybe
117</title></rect><text style="font-size: 11px; font-family: Arial,Helvetica; pointer-events: none;" text-anchor="end" dy=".35em" y="71.81585677749361" x="-6">Maybe</text></g><g transform="translate(795,469.309462915601)" class="node"><rect style="fill: rgb(102, 102, 102);" width="5" height="30.69053708439898"><title>No
25</title></rect><text style="font-size: 11px; font-family: Arial,Helvetica; pointer-events: none;" text-anchor="end" dy=".35em" y="15.34526854219949" x="-6">No</text></g><g transform="translate(795,0)" class="node"><rect style="fill: rgb(102, 102, 102);" width="5" height="305.6777493606138"><title>Yes
249</title></rect><text style="font-size: 11px; font-family: Arial,Helvetica; pointer-events: none;" text-anchor="end" dy=".35em" y="152.8388746803069" x="-6">Yes</text></g><g transform="translate(0,442.21227621483376)" class="node"><rect style="" width="5" height="52.78772378516624"><title>No
43</title></rect><text style="font-size: 11px; font-family: Arial,Helvetica; pointer-events: none;" text-anchor="start" dy=".35em" y="26.39386189258312" x="11">No</text></g><g transform="translate(0,5)" class="node"><rect style="" width="5" height="427.21227621483376"><title>Yes
348</title></rect><text style="font-size: 11px; font-family: Arial,Helvetica; pointer-events: none;" text-anchor="start" dy=".35em" y="213.60613810741688" x="11">Yes</text></g></g></g></svg>