<svg version="1.1" xmlns="http://www.w3.org/2000/svg" height="520" width="800"><g transform="translate(0,10)"><g><path style="stroke-width: 139.655; fill: none; stroke: rgb(0, 0, 0); stroke-opacity: 0.4;" d="M5,69.82758620689656C400,69.82758620689656 400,69.82758620689653 795,69.82758620689653" class="link"></path><path style="stroke-width: 99.569; fill: none; stroke: rgb(0, 0, 0); stroke-opacity: 0.4;" d="M5,189.4396551724138C400,189.4396551724138 400,211.07758620689654 795,211.07758620689654" class="link"></path><path style="stroke-width: 38.7931; fill: none; stroke: rgb(0, 0, 0); stroke-opacity: 0.4;" d="M5,258.6206896551724C400,258.6206896551724 400,323.87931034482756 795,323.87931034482756" class="link"></path><path style="stroke-width: 31.0345; fill: none; stroke: rgb(0, 0, 0); stroke-opacity: 0.4;" d="M5,344.9137931034483C400,344.9137931034483 400,358.7931034482759 795,358.7931034482759" class="link"></path><path style="stroke-width: 24.569; fill: none; stroke: rgb(0, 0, 0); stroke-opacity: 0.4;" d="M5,403.40517241379314C400,403.40517241379314 400,386.5948275862069 795,386.5948275862069" class="link"></path><path style="stroke-width: 24.569; fill: none; stroke: rgb(0, 0, 0); stroke-opacity: 0.4;" d="M5,317.11206896551727C400,317.11206896551727 400,273.1465517241379 795,273.1465517241379" class="link"></path><path style="stroke-width: 20.6897; fill: none; stroke: rgb(0, 0, 0); stroke-opacity: 0.4;" d="M5,459.3103448275862C400,459.3103448275862 400,471.89655172413796 795,471.89655172413796" class="link"></path><path style="stroke-width: 19.3966; fill: none; stroke: rgb(0, 0, 0); stroke-opacity: 0.4;" d="M5,425.3879310344828C400,425.3879310344828 400,435.38793103448273 795,435.38793103448273" class="link"></path><path style="stroke-width: 9.05172; fill: none; stroke: rgb(0, 0, 0); stroke-opacity: 0.4;" d="M5,386.5948275862069C400,386.5948275862069 400,289.9568965517241 795,289.9568965517241" class="link"></path><path style="stroke-width: 9.05172; fill: none; stroke: rgb(0, 0, 0); stroke-opacity: 0.4;" d="M5,364.9568965517242C400,364.9568965517242 400,421.16379310344826 795,421.16379310344826" class="link"></path><path style="stroke-width: 6.46552; fill: none; stroke: rgb(0, 0, 0); stroke-opacity: 0.4;" d="M5,281.25C400,281.25 400,413.4051724137931 795,413.4051724137931" class="link"></path><path style="stroke-width: 5.17241; fill: none; stroke: rgb(0, 0, 0); stroke-opacity: 0.4;" d="M5,302.2413793103449C400,302.2413793103449 400,142.2413793103448 795,142.2413793103448" class="link"></path><path style="stroke-width: 3.87931; fill: none; stroke: rgb(0, 0, 0); stroke-opacity: 0.4;" d="M5,447.0258620689655C400,447.0258620689655 400,146.76724137931032 795,146.76724137931032" class="link"></path><path style="stroke-width: 2.58621; fill: none; stroke: rgb(0, 0, 0); stroke-opacity: 0.4;" d="M5,288.36206896551727C400,288.36206896551727 400,493.5344827586207 795,493.5344827586207" class="link"></path><path style="stroke-width: 2.58621; fill: none; stroke: rgb(0, 0, 0); stroke-opacity: 0.4;" d="M5,285.7758620689655C400,285.7758620689655 400,460.2586206896552 795,460.2586206896552" class="link"></path><path style="stroke-width: 2.58621; fill: none; stroke: rgb(0, 0, 0); stroke-opacity: 0.4;" d="M5,486.12068965517244C400,486.12068965517244 400,498.7068965517241 795,498.7068965517241" class="link"></path><path style="stroke-width: 2.58621; fill: none; stroke: rgb(0, 0, 0); stroke-opacity: 0.4;" d="M5,480.948275862069C400,480.948275862069 400,150 795,150" class="link"></path><path style="stroke-width: 2.58621; fill: none; stroke: rgb(0, 0, 0); stroke-opacity: 0.4;" d="M5,370.7758620689656C400,370.7758620689656 400,496.12068965517244 795,496.12068965517244" class="link"></path><path style="stroke-width: 2.58621; fill: none; stroke: rgb(0, 0, 0); stroke-opacity: 0.4;" d="M5,498.7068965517242C400,498.7068965517242 400,447.67241379310343 795,447.67241379310343" class="link"></path><path style="stroke-width: 1.2931; fill: none; stroke: rgb(0, 0, 0); stroke-opacity: 0.4;" d="M5,482.8879310344828C400,482.8879310344828 400,399.52586206896547 795,399.52586206896547" class="link"></path><path style="stroke-width: 1.2931; fill: none; stroke: rgb(0, 0, 0); stroke-opacity: 0.4;" d="M5,484.1810344827586C400,484.1810344827586 400,445.7327586206896 795,445.7327586206896" class="link"></path></g><g><g transform="translate(0,497.4137931034483)" class="node"><rect style="" width="5" height="2.586206896551724"><title>>100
2</title></rect><text style="font-size: 11px; font-family: Arial,Helvetica; pointer-events: none;" text-anchor="start" dy=".35em" y="1.293103448275862" x="11">>100</text></g><g transform="translate(0,445.08620689655174)" class="node"><rect style="" width="5" height="24.56896551724138"><title>0
19</title></rect><text style="font-size: 11px; font-family: Arial,Helvetica; pointer-events: none;" text-anchor="start" dy=".35em" y="12.28448275862069" x="11">0</text></g><g transform="translate(0,0)" class="node"><rect style="" width="5" height="289.65517241379314"><title>1–5
224</title></rect><text style="font-size: 11px; font-family: Arial,Helvetica; pointer-events: none;" text-anchor="start" dy=".35em" y="144.82758620689657" x="11">1–5</text></g><g transform="translate(0,382.0689655172414)" class="node"><rect style="" width="5" height="53.01724137931035"><title>11-50
41</title></rect><text style="font-size: 11px; font-family: Arial,Helvetica; pointer-events: none;" text-anchor="start" dy=".35em" y="26.508620689655174" x="11">11-50</text></g><g transform="translate(0,479.65517241379314)" class="node"><rect style="" width="5" height="7.758620689655173"><title>51-100
6</title></rect><text style="font-size: 11px; font-family: Arial,Helvetica; pointer-events: none;" text-anchor="start" dy=".35em" y="3.8793103448275863" x="11">51-100</text></g><g transform="translate(0,299.65517241379314)" class="node"><rect style="" width="5" height="72.41379310344828"><title>6–10
56</title></rect><text style="font-size: 11px; font-family: Arial,Helvetica; pointer-events: none;" text-anchor="start" dy=".35em" y="36.20689655172414" x="11">6–10</text></g><g transform="translate(795,492.2413793103448)" class="node"><rect style="fill: rgb(102, 102, 102);" width="5" height="7.758620689655173"><title>More than 8 hours per week, on average
6</title></rect><text style="font-size: 11px; font-family: Arial,Helvetica; pointer-events: none;" text-anchor="end" dy=".35em" y="3.8793103448275863" x="-6">More than 8 hours per week, on average</text></g><g transform="translate(795,458.9655172413793)" class="node"><rect style="fill: rgb(102, 102, 102);" width="5" height="23.275862068965516"><title>None
18</title></rect><text style="font-size: 11px; font-family: Arial,Helvetica; pointer-events: none;" text-anchor="end" dy=".35em" y="11.637931034482758" x="-6">None</text></g><g transform="translate(795,304.48275862068965)" class="node"><rect style="fill: rgb(102, 102, 102);" width="5" height="95.6896551724138"><title>Up to 1 hour per week, on average
74</title></rect><text style="font-size: 11px; font-family: Arial,Helvetica; pointer-events: none;" text-anchor="end" dy=".35em" y="47.8448275862069" x="-6">Up to 1 hour per week, on average</text></g><g transform="translate(795,-2.842170943040401e-14)" class="node"><rect style="fill: rgb(102, 102, 102);" width="5" height="151.29310344827587"><title>Up to 10 hours in total
117</title></rect><text style="font-size: 11px; font-family: Arial,Helvetica; pointer-events: none;" text-anchor="end" dy=".35em" y="75.64655172413794" x="-6">Up to 10 hours in total</text></g><g transform="translate(795,161.29310344827584)" class="node"><rect style="fill: rgb(102, 102, 102);" width="5" height="133.1896551724138"><title>Up to 2 hours per month, on average
103</title></rect><text style="font-size: 11px; font-family: Arial,Helvetica; pointer-events: none;" text-anchor="end" dy=".35em" y="66.5948275862069" x="-6">Up to 2 hours per month, on average</text></g><g transform="translate(795,410.17241379310343)" class="node"><rect style="fill: rgb(102, 102, 102);" width="5" height="38.793103448275865"><title>Up to 8 hours per week, on average
30</title></rect><text style="font-size: 11px; font-family: Arial,Helvetica; pointer-events: none;" text-anchor="end" dy=".35em" y="19.396551724137932" x="-6">Up to 8 hours per week, on average</text></g></g></g></svg>